<svg xmlns="http://www.w3.org/2000/svg" width="98" height="30" fill="none" style="display:block;margin-bottom:1px;color:var(--white)"><path fill="#FF6492" d="M26.087 8.055l-12.11-7.038v4.87l12.11 7.008v-4.84z"></path><path fill="#A14474" d="M9.13 12.899L5.497 10.93v4.086L9.13 12.9z"></path><path fill="url(#cubejs-dark_svg__a)" fill-rule="evenodd" d="M22.454 15.017l3.633-2.122-12.11-7.008-8.48 5.044 3.633 1.968 4.845-2.8 8.479 4.918zm-8.479 0L1.863 21.98l12.112 7.037 12.112-7.037-12.112-6.963z" clip-rule="evenodd"></path><path fill="#FF6492" d="M26.087 17.148l-12.112-7.125v4.994l12.112 6.963v-4.832z"></path><path fill="#7A77FF" d="M5.497 15.017v-4.086l8.48-5.044v-4.87L1.863 8.055V21.98l12.112-6.963v-4.994l-8.478 4.994z"></path><path fill="currentColor" d="M33.6 15.645c0-4.21 3.333-7.484 7.533-7.484 2.695 0 4.78 1.315 5.997 3.332l-2.143 1.695c-.928-1.316-2.115-2.193-3.824-2.193-2.608 0-4.462 2.047-4.462 4.648 0 2.66 1.854 4.677 4.462 4.677 1.68 0 2.868-.847 3.824-2.163l2.143 1.667c-1.245 2.016-3.332 3.332-5.997 3.332-4.2.002-7.533-3.273-7.533-7.51zm16.167 1.17V8.483h3.013v8.565c0 2.017 1.419 3.274 3.216 3.274 1.738 0 3.13-1.257 3.13-3.274V8.483h3.042v8.332c0 3.888-2.695 6.343-6.17 6.343-3.536 0-6.231-2.455-6.231-6.343zm30.858-1.141c0 4.268-2.926 7.484-6.953 7.484-2.087 0-3.912-.847-4.983-2.309v1.988h-2.84V.911h3.043v9.327c1.073-1.316 2.782-2.075 4.752-2.075 4.055-.003 6.981 3.242 6.981 7.51zm-3.13-.029c0-2.778-1.911-4.676-4.346-4.676-2.144 0-4.29 1.462-4.29 4.707 0 3.273 2.175 4.676 4.29 4.676 2.463 0 4.347-1.93 4.347-4.707zm18.863 1.024H85.752c.407 2.367 2.202 3.77 4.635 3.77 1.652 0 2.955-.643 4.144-1.695l1.45 2.106c-1.508 1.431-3.42 2.308-5.68 2.308-4.404 0-7.65-3.245-7.65-7.484 0-4.21 3.216-7.513 7.36-7.513 3.796 0 6.577 2.806 6.577 6.577 0 .79-.145 1.551-.231 1.93zM85.811 14.27h7.736c-.058-2.252-1.709-3.51-3.65-3.51-2.001.003-3.623 1.376-4.086 3.51z"></path><defs><linearGradient id="cubejs-dark_svg__a" x1="4.395" x2="20.152" y1="5.887" y2="24.806" gradientUnits="userSpaceOnUse"><stop stop-color="#17173A"></stop><stop offset="1" stop-color="#303062"></stop></linearGradient></defs></svg>
